<svg xmlns:dc="http://purl.org/dc/elements/1.1/" xmlns:cc="http://creativecommons.org/ns#" xmlns:rdf="http://www.w3.org/1999/02/22-rdf-syntax-ns#" xmlns:svg="http://www.w3.org/2000/svg" xmlns="http://www.w3.org/2000/svg" xmlns:sodipodi="http://sodipodi.sourceforge.net/DTD/sodipodi-0.dtd" xmlns:inkscape="http://www.inkscape.org/namespaces/inkscape" id="a13b8cba-1f8f-490a-afba-7bfd552ebb8c" data-name="Layer 1" viewBox="0 0 937.59653 653.44451" version="1.1" sodipodi:docname="test.svg" inkscape:version="0.92.3 (2405546, 2018-03-11)"> <metadata id="metadata105"> <rdf:RDF> <cc:Work rdf:about=""> <dc:format>image/svg+xml</dc:format> <dc:type rdf:resource="http://purl.org/dc/dcmitype/StillImage" /> </cc:Work> </rdf:RDF> </metadata> <defs id="defs103" /> <sodipodi:namedview pagecolor="#ffffff" bordercolor="#666666" borderopacity="1" objecttolerance="10" gridtolerance="10" guidetolerance="10" inkscape:pageopacity="0" inkscape:pageshadow="2" inkscape:window-width="1859" inkscape:window-height="1016" id="namedview101" showgrid="false" inkscape:zoom="0.675" inkscape:cx="461.37978" inkscape:cy="242.46639" inkscape:window-x="1501" inkscape:window-y="1507" inkscape:window-maximized="1" inkscape:current-layer="a13b8cba-1f8f-490a-afba-7bfd552ebb8c" inkscape:snap-nodes="false" /> <title id="title2">biking</title> <polygon points="195.992 26.994 200.088 364.913 377.078 451.126 372.982 113.208 195.992 26.994" fill="#f2f2f2" id="polygon4" /> <polygon points="142.208 0 9.957 271.502 189.403 358.913 185.307 20.994 142.208 0" fill="#f2f2f2" id="polygon6" /> <polygon points="937.597 381.414 580.403 207.422 584.499 545.34 805.345 652.916 937.597 381.414" fill="#f2f2f2" id="polygon8" /> <polygon points="388.982 113.208 393.078 451.126 570.069 537.34 565.973 199.422 388.982 113.208" id="polygon10" fill="#f2f2f2" /> <path d="M581.70174,506.22225l-5,112s13,106,10,109-11,9-5,16,28,12,29,8,3-118,3-118l7-135Z" transform="translate(-131.20174 -123.27775)" fill="#2f2e41" id="path12" /> <path d="M581.70174,506.22225l-5,112s13,106,10,109-11,9-5,16,28,12,29,8,3-118,3-118l7-135Z" transform="translate(-131.20174 -123.27775)" opacity="0.2" id="path14" /> <path d="M586.70174,741.22225s-25,19-28,19-30,9-11,13,65,2,66-4-3-24.20866-3-24.20866Z" transform="translate(-131.20174 -123.27775)" fill="#2f2e41" id="path16" /> <path d="M586.70174,741.22225s-25,19-28,19-30,9-11,13,65,2,66-4-3-24.20866-3-24.20866Z" transform="translate(-131.20174 -123.27775)" opacity="0.2" id="path18" /> <path d="M524.70174,422.22225s-11,4-11,7-10,41-12,43-3,11-3,11-10,23-8,23,19-4,20,0,9-25,9-25l17-34Z" transform="translate(-131.20174 -123.27775)" fill="#84ceeb" id="path20" /> <path d="M490.70174,510.22225s3,22,11,24,0-28,0-28Z" transform="translate(-131.20174 -123.27775)" fill="#ffb8b8" id="path22" /> <path d="M516.70174,410.22225s6,13,9,20,31-18,31-18-15-11-15-16S516.70174,410.22225,516.70174,410.22225Z" transform="translate(-131.20174 -123.27775)" fill="#ffb8b8" id="path24" /> <path d="M228.2409,735.27771c6.70634,24.79066,29.67708,40.14415,29.67708,40.14415s12.0976-24.84013,5.39126-49.6308-29.67707-40.14414-29.67707-40.14414S221.53456,710.487,228.2409,735.27771Z" transform="translate(-131.20174 -123.27775)" fill="#3f3d56" id="path26" /> <path d="M238.0954,729.94993c18.40229,17.91389,20.65,45.45172,20.65,45.45172s-27.58831-1.50634-45.99061-19.42023-20.65-45.45172-20.65-45.45172S219.6931,712.036,238.0954,729.94993Z" transform="translate(-131.20174 -123.27775)" fill="#84ceeb" id="path28" /> <path d="M466.70174,776.22225a91,91,0,1,1,91-91A91.10284,91.10284,0,0,1,466.70174,776.22225Zm0-180a89,89,0,1,0,89,89A89.10056,89.10056,0,0,0,466.70174,596.22225Z" transform="translate(-131.20174 -123.27775)" fill="#2f2e41" id="path30" /> <path d="M746.70174,776.22225a91,91,0,1,1,91-91A91.10284,91.10284,0,0,1,746.70174,776.22225Zm0-180a89,89,0,1,0,89,89A89.10025,89.10025,0,0,0,746.70174,596.22225Z" transform="translate(-131.20174 -123.27775)" fill="#2f2e41" id="path32" /> <circle cx="335.5" cy="561.94451" r="6" fill="#2f2e41" id="circle34" /> <circle cx="617.5" cy="561.94451" r="6" fill="#2f2e41" id="circle36" /> <polygon points="344.42 553.337 342.58 552.552 394.845 429.931 543.055 432.955 543.342 433.405 616.342 547.405 614.658 548.484 541.945 434.934 396.155 431.958 344.42 553.337" fill="#2f2e41" id="polygon38" /> <polygon points="500.125 576.128 538.538 440.672 540.462 441.217 502.875 573.761 603.374 560.952 603.626 562.937 500.125 576.128" fill="#2f2e41" id="polygon40" /> <rect x="572.2018" y="563.17975" width="1.99988" height="147.08501" transform="translate(-413.07405 460.30478) rotate(-44.4491)" fill="#2f2e41" id="rect42" /> <rect x="666.29998" y="542.22229" width="22.80351" height="1.99993" transform="translate(-155.67744 931.13616) rotate(-74.76942)" fill="#2f2e41" id="rect44" /> <polygon points="398.476 424.166 396.524 423.723 401.247 402.945 384.5 402.945 384.5 389.945 386.5 389.945 386.5 400.945 403.753 400.945 398.476 424.166" fill="#2f2e41" id="polygon46" /> <path d="M643.70174,512.22225s0-6,13-3,53,11,56,10,2,6-11,9-28-4-31-6S643.70174,512.22225,643.70174,512.22225Z" transform="translate(-131.20174 -123.27775)" fill="#2f2e41" id="path48" /> <rect x="450.5" y="567.94451" width="26" height="10" fill="#84ceeb" id="rect50" /> <path d="M632.70174,718.22225a20,20,0,1,1,20-20A20.02229,20.02229,0,0,1,632.70174,718.22225Zm0-38a18,18,0,1,0,18,18A18.02094,18.02094,0,0,0,632.70174,680.22225Z" transform="translate(-131.20174 -123.27775)" fill="#2f2e41" id="path52" /> <circle cx="394.5" cy="272.94451" r="24" fill="#ffb8b8" id="circle54" /> <path d="M601.70174,508.22225s-69,40-68,53,53,84,53,84,4,21,8,21,29,9,30,3-8-13-7-17-44-77-44-77,96.30708-36,76.15354-67S601.70174,508.22225,601.70174,508.22225Z" id="path56" fill="#2f2e41" transform="translate(-131.20174 -123.27775)" /> <path d="M603.70174,662.22225s-12,3-14,7-37,17-27,20,68,4,70,2,0-25.2126-8-25.1063S607.70174,669.22225,603.70174,662.22225Z" transform="translate(-131.20174 -123.27775)" fill="#2f2e41" id="path58" /> <path d="M525.70174,433.22225l22.5-27.5s25.5-7.5,36.5,7.5,41,52,51,60,24,39,19,40-33-11-44-3-32,9-33,5-61-71-61-80,6.39359-10.93113,6.39359-10.93113Z" transform="translate(-131.20174 -123.27775)" fill="#84ceeb" id="path60" /> <rect x="502.70174" y="507.22225" width="38" height="6" rx="3" transform="translate(68.70297 -267.99528) rotate(19.4707)" fill="#2f2e41" id="rect62" /> <path d="M469.70174,500.22225s-35,10-32,21,35-13,35-13Z" transform="translate(-131.20174 -123.27775)" fill="#ffb8b8" id="path64" /> <path d="M560.70174,413.22225s-14,12-17,26-18,39-18,39l-61,20s-4,19,2,19,73-14,75-17,45-60,45-60S590.70174,409.22225,560.70174,413.22225Z" transform="translate(-131.20174 -123.27775)" fill="#84ceeb" id="path66" /> <path d="M510.79531,368.44381a4.73339,4.73339,0,0,1-2.06116,1.03435,1.47087,1.47087,0,0,1-1.70452-1.1807,6.11136,6.11136,0,0,1-2.33876,2.99963c-1.1451.59683-2.91578.09638-3.08083-1.18434a5.40475,5.40475,0,0,1-1.244,2.62583,1.8631,1.8631,0,0,1-2.61916.08755c.50148,2.74053.192,5.55888.34944,8.34046s.89921,5.73046,3.00075,7.55954c3.06485,2.66751,7.67364,2.00916,11.7052,1.50379a3.55294,3.55294,0,0,1,1.83433.10034c1.50955.64313,1.44107,2.7445,1.46142,4.38521a12.18456,12.18456,0,0,0,10.66923,11.57068,6.10787,6.10787,0,0,0,4.53952-1.1079c1.14466-.97023,1.72935-2.55159,3.041-3.28043,2.13359-1.18558,4.72122.54346,6.28115,2.4208s3.09735,4.18665,5.5139,4.53031c3.196.4545,5.63028-2.80262,6.82457-5.80177a33.82171,33.82171,0,0,0-.67217-26.2798C545.62186,362.22039,522.82536,359.91951,510.79531,368.44381Z" transform="translate(-131.20174 -123.27775)" fill="#2f2e41" id="path68" /> <path d="M933.09041,776.18124l-1.77735-.918c23.082-44.624,10.73926-102.5752-3.67871-143.332a439.29051,439.29051,0,0,0-37.27783-78.67481l1.69043-1.06836a441.53687,441.53687,0,0,1,37.47217,79.0752C944.0699,672.39315,956.49959,730.92245,933.09041,776.18124Z" transform="translate(-131.20174 -123.27775)" fill="#2f2e41" id="path70" /> <rect x="908.61157" y="587.22257" width="72.18033" height="1.99936" transform="matrix(0.17975, -0.98371, 0.98371, 0.17975, 65.05255, 1288.53009)" fill="#2f2e41" id="rect72" /> <rect x="895.70138" y="600.54655" width="2.00072" height="98.35141" transform="translate(-333.5586 661.65986) rotate(-42.93968)" fill="#2f2e41" id="rect74" /> <rect x="939.19743" y="715.2221" width="58.00862" height="2.00031" transform="translate(-310.66012 957.99953) rotate(-54.13715)" fill="#2f2e41" id="rect76" /> <circle cx="825" cy="400.44451" r="10" id="circle78" fill="#84ceeb" /> <circle cx="716" cy="477.44451" r="10" fill="#3f3d56" id="circle80" /> <circle cx="760" cy="487.44451" r="10" fill="#3f3d56" id="circle82" /> <circle cx="740" cy="526.44451" r="10" fill="#84ceeb" id="circle84" /> <circle cx="865" cy="551.44451" r="10" fill="#3f3d56" id="circle86" /> <circle cx="832" cy="562.44451" r="10" fill="#3f3d56" id="circle88" /> <circle cx="855" cy="594.44451" r="10" fill="#3f3d56" id="circle90" /> <circle cx="750" cy="412.44451" r="10" fill="#3f3d56" id="circle92" /> <rect y="651.44451" width="903" height="2" fill="#2f2e41" id="rect94" /> <rect x="170.20174" y="536.5846" width="98" height="98" transform="translate(190.95803 -154.42515) rotate(30)" fill="#f2f2f2" id="rect96" /> <path d="M239.20174,669.5846a22,22,0,1,1,22-22A22.02489,22.02489,0,0,1,239.20174,669.5846Zm0-42a20,20,0,1,0,20,20A20.02229,20.02229,0,0,0,239.20174,627.5846Z" transform="translate(-131.20174 -123.27775)" fill="#3f3d56" id="path98" /> <circle style="fill:#8860d0;fill-opacity:1;stroke-width:0.5" cx="422.36536" cy="438.45966" r="5" id="circle78-3" /> <circle style="fill:#8860d0;fill-opacity:1;stroke-width:0.5" cx="484.84625" cy="548.99927" r="5" id="circle78-3-6" /> <circle style="fill:#8860d0;fill-opacity:1;stroke-width:0.5" cx="503.09744" cy="389.62354" id="circle78-3-7" r="5" /> <path style="fill:#8860d0;fill-opacity:1;stroke-width:0.49999994" d="m 441.59541,299.3381 a 4.999999,4.999999 0 0 1 -5,5 4.999999,4.999999 0 0 1 -5,-5 4.999999,4.999999 0 0 1 5,-5 4.999999,4.999999 0 0 1 5,5 z" id="circle78-3-7-5" inkscape:connector-curvature="0" /> <rect style="fill:#8860d0;fill-opacity:1;stroke-width:14225.78613281" x="3.7363561e+11" y="3.7363561e+11" width="28177.611" height="2112616.5" transform="matrix(0,-1,0,1,0,0)" id="rect42-3-5-6-9" /> <path inkscape:connector-curvature="0" style="fill:#8860d0;fill-opacity:1;stroke-width:0.49999994" d="m 409.26467,365.49873 a 4.999999,4.999999 0 0 1 -5,5 4.999999,4.999999 0 0 1 -5,-5 4.999999,4.999999 0 0 1 5,-5 4.999999,4.999999 0 0 1 5,5 z" id="circle78-3-2-2" /> <path inkscape:connector-curvature="0" style="fill:#8860d0;fill-opacity:1;stroke-width:0.49999994" d="m 343.08186,383.28707 a 4.999999,4.999999 0 0 1 -5,5 4.999999,4.999999 0 0 1 -5,-5 4.999999,4.999999 0 0 1 5,-5 4.999999,4.999999 0 0 1 5,5 z" id="circle78-3-2-2-7" /> <path style="fill:none;stroke:#8860d0;stroke-width:2.13543307;stroke-linecap:butt;stroke-linejoin:miter;stroke-opacity:1;stroke-miterlimit:4;stroke-dasharray:none" d="m 485.92593,549.37044 -62.5926,-110.74074 81.11111,-48.51851 -67.77777,-90.37037 -32.22223,65.55555 -67.03703,18.51852" id="path5122" inkscape:connector-curvature="0" /> <path style="fill:none;stroke:#8860d0;stroke-width:2.41403508;stroke-linecap:butt;stroke-linejoin:miter;stroke-miterlimit:4;stroke-dasharray:none;stroke-opacity:1" d="m 490.29196,369.84433 c -21.66082,14.89123 -6.12152,32.01614 -6.12152,32.01614" id="path5130" inkscape:connector-curvature="0" /> <path style="fill:none;stroke:#8860d0;stroke-width:2.13543307;stroke-linecap:butt;stroke-linejoin:miter;stroke-opacity:1;stroke-miterlimit:4;stroke-dasharray:none" d="m 452.22222,318.25933 c -14.81481,10.74074 -27.4074,4.07408 -27.4074,4.07408" id="path5132" inkscape:connector-curvature="0" /> <path style="fill:none;stroke:#8860d0;stroke-width:2.13543307;stroke-linecap:butt;stroke-linejoin:miter;stroke-opacity:1;stroke-miterlimit:4;stroke-dasharray:none" d="m 413.33333,346.77785 c -31.11111,-2.22222 -31.11111,23.70371 -31.11111,23.70371" id="path5134" inkscape:connector-curvature="0" /> <path style="fill:none;stroke:#8860d0;stroke-width:2.23370079;stroke-linecap:butt;stroke-linejoin:miter;stroke-opacity:1;stroke-miterlimit:4;stroke-dasharray:none" d="m 446.6645,424.95123 c 13.83288,23.1904 -12.61233,31.73424 -12.61233,31.73424" id="path5138" inkscape:connector-curvature="0" /> </svg>
